<svg xmlns="http://www.w3.org/2000/svg" width="61.538" height="53.846" viewBox="0 0 61.538 53.846">
  <path id="Icon_awesome-wallet" data-name="Icon awesome-wallet" d="M55.433,13.788H9.615a1.923,1.923,0,1,1,0-3.846H55.769a1.923,1.923,0,0,0,1.923-1.923A5.769,5.769,0,0,0,51.923,2.25H7.692A7.692,7.692,0,0,0,0,9.942V48.4A7.692,7.692,0,0,0,7.692,56.1h47.74a5.951,5.951,0,0,0,6.106-5.769V19.558A5.951,5.951,0,0,0,55.433,13.788ZM50,38.788a3.846,3.846,0,1,1,3.846-3.846A3.847,3.847,0,0,1,50,38.788Z" transform="translate(0 -2.25)" fill="#fff"/>
</svg>
