<svg xmlns="http://www.w3.org/2000/svg" width="47.115" height="53.846" viewBox="0 0 47.115 53.846">
  <path id="Icon_awesome-hand-paper" data-name="Icon awesome-hand-paper" d="M42.991,13.462A4.273,4.273,0,0,0,38.7,17.751v9.172h-.841V8.391A4.273,4.273,0,0,0,33.572,4.1a4.207,4.207,0,0,0-4.125,4.206V26.923h-.841V4.29A4.273,4.273,0,0,0,24.317,0a4.207,4.207,0,0,0-4.125,4.206V26.923h-.841V8.5a4.273,4.273,0,0,0-4.289-4.289,4.207,4.207,0,0,0-4.125,4.206V33.232L7.609,28.656A4.207,4.207,0,1,0,.8,33.6L14.014,51.767A5.048,5.048,0,0,0,18.1,53.846h20.78a5.048,5.048,0,0,0,4.914-3.892l2.788-11.848a20.194,20.194,0,0,0,.537-4.625V17.668A4.207,4.207,0,0,0,42.991,13.462Z" transform="translate(0 0)" fill="#fff"/>
</svg>
