<svg xmlns="http://www.w3.org/2000/svg" width="47.115" height="53.846" viewBox="0 0 47.115 53.846">
  <path id="Icon_awesome-unlock" data-name="Icon awesome-unlock" d="M42.067,26.923H15.986V16.08a7.572,7.572,0,1,1,15.144-.095v1.683a2.518,2.518,0,0,0,2.524,2.524h3.365a2.518,2.518,0,0,0,2.524-2.524V15.986a15.986,15.986,0,1,0-31.971.158v10.78H5.048A5.049,5.049,0,0,0,0,31.971V48.8a5.049,5.049,0,0,0,5.048,5.048H42.067A5.049,5.049,0,0,0,47.115,48.8V31.971A5.049,5.049,0,0,0,42.067,26.923Z" transform="translate(0 0)" fill="#fff"/>
</svg>
