<svg xmlns="http://www.w3.org/2000/svg" width="60.577" height="53.846" viewBox="0 0 60.577 53.846">
  <path id="Icon_awesome-shopping-cart" data-name="Icon awesome-shopping-cart" d="M55.541,31.689,60.513,9.814a2.524,2.524,0,0,0-2.461-3.083H16.744L15.78,2.018A2.524,2.524,0,0,0,13.307,0H2.524A2.524,2.524,0,0,0,0,2.524V4.207A2.524,2.524,0,0,0,2.524,6.731H9.874l7.388,36.118a5.89,5.89,0,1,0,7.051.9H46.361a5.888,5.888,0,1,0,6.688-1.094l.58-2.553a2.524,2.524,0,0,0-2.461-3.083H22.939l-.688-3.365H53.08A2.524,2.524,0,0,0,55.541,31.689Z" fill="#fff"/>
</svg>
