<svg xmlns="http://www.w3.org/2000/svg" width="53.844" height="53.846" viewBox="0 0 53.844 53.846">
  <path id="Icon_awesome-tools" data-name="Icon awesome-tools" d="M52.7,41.611,40.382,29.3a7.808,7.808,0,0,0-8.98-1.462l-11.21-11.21V10.1L6.732,0,0,6.73,10.1,20.19h6.53L27.837,31.4a7.825,7.825,0,0,0,1.462,8.98L41.613,52.695a3.91,3.91,0,0,0,5.542,0L52.7,47.153a3.929,3.929,0,0,0,0-5.542ZM34.883,23.661a11.064,11.064,0,0,1,7.876,3.26l2.04,2.04a14.885,14.885,0,0,0,4.606-3.1A15.123,15.123,0,0,0,53.39,11.483a1.259,1.259,0,0,0-2.114-.578l-7.824,7.824-7.14-1.188L35.125,10.4l7.824-7.824a1.27,1.27,0,0,0-.6-2.124A15.148,15.148,0,0,0,27.984,4.438a14.9,14.9,0,0,0-4.333,10.894l8.633,8.633a11.456,11.456,0,0,1,2.6-.3ZM23.957,32.284l-5.962-5.962L1.968,42.358a6.729,6.729,0,0,0,9.517,9.517l13-13a11.292,11.292,0,0,1-.526-6.593ZM6.732,49.635a2.524,2.524,0,1,1,2.524-2.524A2.531,2.531,0,0,1,6.732,49.635Z" transform="translate(0.004)" fill="#fff"/>
</svg>
