<svg xmlns="http://www.w3.org/2000/svg" width="37.641" height="43.177" viewBox="0 0 37.641 43.177">
  <path id="Token_Price_Icon" data-name="Token Price Icon" d="M0,34.179v3.6c0,2.977,6.323,5.4,14.115,5.4s14.115-2.42,14.115-5.4v-3.6c-3.036,2.454-8.587,3.6-14.115,3.6S3.036,36.633,0,34.179ZM23.526,10.794c7.793,0,14.115-2.42,14.115-5.4S31.318,0,23.526,0,9.41,2.42,9.41,5.4,15.733,10.794,23.526,10.794ZM0,25.333v4.351c0,2.977,6.323,5.4,14.115,5.4s14.115-2.42,14.115-5.4V25.333c-3.036,2.867-8.594,4.351-14.115,4.351S3.036,28.2,0,25.333Zm30.583.928c4.213-.936,7.058-2.673,7.058-4.672v-3.6A16.666,16.666,0,0,1,30.583,20.9ZM14.115,13.493C6.323,13.493,0,16.512,0,20.239s6.323,6.746,14.115,6.746,14.115-3.019,14.115-6.746S21.908,13.493,14.115,13.493Zm16.122,4.748c4.411-.911,7.4-2.7,7.4-4.748v-3.6c-2.61,2.117-7.094,3.255-11.814,3.525A8.88,8.88,0,0,1,30.238,18.241Z" transform="translate(0)" fill="#f55dff"/>
</svg>
