<svg xmlns="http://www.w3.org/2000/svg" width="53.666" height="50.973" viewBox="0 0 53.666 50.973">
  <g id="Icon_ionic-md-pie" data-name="Icon ionic-md-pie" transform="translate(52.124 33.816) rotate(150)">
    <path id="Path_6" data-name="Path 6" d="M-1.128,20.554l2.742-.168,16.4-1.008L19.024,1.813l.168-2.937c-.426-.01-.905,0-1.368.029C7.978-.49-.49,8.544-1.095,19.089-1.123,19.584-1.136,20.1-1.128,20.554Z" transform="translate(0 0)" fill="#f55dff"/>
    <path id="Path_7" data-name="Path 7" d="M2.1,30.744a15.231,15.231,0,0,0,13.49,6.286c9.846-.6,18.314-9.639,18.919-20.183A17.321,17.321,0,0,0,28.692,2.371a15.19,15.19,0,0,0-9.548-3.547l-1.176,20.5L-1.176,20.5A17.756,17.756,0,0,0,2.1,30.744Z" transform="translate(2.622 2.82)" fill="#f55dff"/>
  </g>
</svg>
